<?xml version="1.0" ?><!DOCTYPE svg  PUBLIC '-//W3C//DTD SVG 1.1//EN'  'http://www.w3.org/Graphics/SVG/1.1/DTD/svg11.dtd'><svg enable-background="new 0 0 24 24" height="24px" id="Layer_1" version="1.1" viewBox="0 0 24 24" width="24px" xml:space="preserve" xmlns="http://www.w3.org/2000/svg" xmlns:xlink="http://www.w3.org/1999/xlink"><g><path d="M12,18c-1.7,0-3,1.3-3,3s1.3,3,3,3s3-1.3,3-3S13.7,18,12,18z M12,22c-0.6,0-1-0.4-1-1s0.4-1,1-1s1,0.4,1,1S12.6,22,12,22z"/><path d="M12,0c-1.7,0-3,1.3-3,3v10c0,1.7,1.3,3,3,3s3-1.3,3-3V3C15,1.3,13.7,0,12,0z M12,14c-0.6,0-1-0.4-1-1V3c0-0.6,0.4-1,1-1   s1,0.4,1,1v10C13,13.6,12.6,14,12,14z"/></g></svg>